ffmpeg version 3.4.8-0ubuntu0.2 Copyright (c) 2000-2020 the FFmpeg developers
  built with gcc 7 (Ubuntu 7.5.0-3ubuntu1~18.04)
  configuration: --prefix=/usr --extra-version=0ubuntu0.2 --toolchain=hardened --libdir=/usr/lib/x86_64-linux-gnu --incdir=/usr/include/x86_64-linux-gnu --enable-gpl --disable-stripping --enable-avresample --enable-avisynth --enable-gnutls --enable-ladspa --enable-libass --enable-libbluray --enable-libbs2b --enable-libcaca --enable-libcdio --enable-libflite --enable-libfontconfig --enable-libfreetype --enable-libfribidi --enable-libgme --enable-libgsm --enable-libmp3lame --enable-libmysofa --enable-libopenjpeg --enable-libopenmpt --enable-libopus --enable-libpulse --enable-librubberband --enable-librsvg --enable-libshine --enable-libsnappy --enable-libsoxr --enable-libspeex --enable-libssh --enable-libtheora --enable-libtwolame --enable-libvorbis --enable-libvpx --enable-libwavpack --enable-libwebp --enable-libx265 --enable-libxml2 --enable-libxvid --enable-libzmq --enable-libzvbi --enable-omx --enable-openal --enable-opengl --enable-sdl2 --enable-libdc1394 --enable-libdrm --enable-libiec61883 --enable-chromaprint --enable-frei0r --enable-libopencv --enable-libx264 --enable-shared
  libavutil      55. 78.100 / 55. 78.100
  libavcodec     57.107.100 / 57.107.100
  libavformat    57. 83.100 / 57. 83.100
  libavdevice    57. 10.100 / 57. 10.100
  libavfilter     6.107.100 /  6.107.100
  libavresample   3.  7.  0 /  3.  7.  0
  libswscale      4.  8.100 /  4.  8.100
  libswresample   2.  9.100 /  2.  9.100
  libpostproc    54.  7.100 / 54.  7.100
[rawvideo @ 0x55b8edceaa20] Estimating duration from bitrate, this may be inaccurate
Input #0, rawvideo, from '../../SVC-Encoder-20220109T061506Z-001/SVC-Encoder/Dataset/RollerCoaster/6f_2x2/tile_yuv/f5_t0_480x480.yuv':
  Duration: 00:00:10.00, start: 0.000000, bitrate: 82944 kb/s
    Stream #0:0: Video: rawvideo (I420 / 0x30323449), yuv420p, 480x480, 82944 kb/s, 30 tbr, 30 tbn, 30 tbc
Stream mapping:
  Stream #0:0 -> #0:0 (rawvideo (native) -> h264 (libx264))
Press [q] to stop, [?] for help
[libx264 @ 0x55b8edcf7c60] using cpu capabilities: MMX2 SSE2Fast LZCNT SSSE3 SSE4.2 AVX
[libx264 @ 0x55b8edcf7c60] profile High, level 3.0
Output #0, rawvideo, to 'RollerCoaster_f5_t0_480x480_x264_QP_28.h264':
  Metadata:
    encoder         : Lavf57.83.100
    Stream #0:0: Video: h264 (libx264), yuv420p, 480x480, q=-1--1, 30 fps, 30 tbn, 30 tbc
    Metadata:
      encoder         : Lavc57.107.100 libx264
    Side data:
      cpb: bitrate max/min/avg: 0/0/0 buffer size: 0 vbv_delay: -1
frame=  298 fps=0.0 q=34.0 PSNR=Y:nan U:nan V:nan *:nan size=      53kB time=00:00:08.50 bitrate=  51.1kbits/s speed=16.9x    frame=  300 fps=0.0 q=34.0 LPSNR=Y:inf U:inf V:inf *:inf size=      63kB time=00:00:09.93 bitrate=  51.7kbits/s speed=17.3x    
video:63kB audio:0kB subtitle:0kB other streams:0kB global headers:0kB muxing overhead: 0.000000%
[libx264 @ 0x55b8edcf7c60] frame I:2     Avg QP:27.45  size:  3554  PSNR Mean Y:48.34 U:50.82 V:51.86 Avg:49.11 Global:49.01
[libx264 @ 0x55b8edcf7c60] frame P:96    Avg QP:29.32  size:   446  PSNR Mean Y:45.69 U:49.56 V:50.76 Avg:46.73 Global:46.56
[libx264 @ 0x55b8edcf7c60] frame B:202   Avg QP:33.60  size:    71  PSNR Mean Y:45.96 U:49.97 V:51.04 Avg:47.01 Global:46.95
[libx264 @ 0x55b8edcf7c60] consecutive B-frames:  7.0%  8.7%  3.0% 81.3%
[libx264 @ 0x55b8edcf7c60] mb I  I16..4: 56.6% 41.3%  2.1%
[libx264 @ 0x55b8edcf7c60] mb P  I16..4:  1.9%  2.4%  0.0%  P16..4:  5.3%  2.3%  0.5%  0.0%  0.0%    skip:87.5%
[libx264 @ 0x55b8edcf7c60] mb B  I16..4:  0.0%  0.0%  0.0%  B16..8:  4.1%  0.2%  0.0%  direct: 0.0%  skip:95.7%  L0:37.0% L1:61.6% BI: 1.3%
[libx264 @ 0x55b8edcf7c60] 8x8 transform intra:50.8% inter:50.3%
[libx264 @ 0x55b8edcf7c60] coded y,uvDC,uvAC intra: 3.9% 16.1% 1.5% inter: 0.6% 0.4% 0.0%
[libx264 @ 0x55b8edcf7c60] i16 v,h,dc,p: 39% 44%  9%  8%
[libx264 @ 0x55b8edcf7c60] i8 v,h,dc,ddl,ddr,vr,hd,vl,hu:  1%  2% 94%  0%  0%  1%  1%  0%  1%
[libx264 @ 0x55b8edcf7c60] i4 v,h,dc,ddl,ddr,vr,hd,vl,hu:  6% 17% 44%  5%  3%  6%  7%  3% 11%
[libx264 @ 0x55b8edcf7c60] i8c dc,h,v,p: 80% 12%  7%  1%
[libx264 @ 0x55b8edcf7c60] Weighted P-Frames: Y:0.0% UV:0.0%
[libx264 @ 0x55b8edcf7c60] ref P L0: 64.6% 20.4% 10.0%  5.0%
[libx264 @ 0x55b8edcf7c60] ref B L0: 77.8% 18.6%  3.6%
[libx264 @ 0x55b8edcf7c60] ref B L1: 82.4% 17.6%
[libx264 @ 0x55b8edcf7c60] PSNR Mean Y:45.893 U:49.844 V:50.952 Avg:46.936 Global:46.830 kb/s:51.31
